<svg xmlns="http://www.w3.org/2000/svg" xmlns:xlink="http://www.w3.org/1999/xlink" width="109" zoomAndPan="magnify" viewBox="0 0 81.75 42.75" height="57" preserveAspectRatio="xMidYMid meet" version="1.0"><defs><g/><clipPath id="12392a7856"><path d="M 47 11 L 63.753906 11 L 63.753906 31.59375 L 47 31.59375 Z M 47 11 " clip-rule="nonzero"/></clipPath><clipPath id="b14d1aab90"><path d="M 46 4.75 L 63 4.75 L 63 26 L 46 26 Z M 46 4.75 " clip-rule="nonzero"/></clipPath><clipPath id="e425d06fec"><path d="M 47.460938 27.707031 L 80 27.707031 L 80 38 L 47.460938 38 Z M 47.460938 27.707031 " clip-rule="nonzero"/></clipPath><clipPath id="a270e69180"><path d="M 47.476562 36.167969 C 47.476562 35.367188 48.183594 34.742188 48.996094 34.828125 L 74.199219 37.503906 C 77.304688 37.832031 79.925781 35.253906 79.578125 32.203125 C 79.21875 29.0625 75.921875 27.109375 72.929688 28.273438 L 49.351562 37.417969 C 48.453125 37.769531 47.476562 37.117188 47.476562 36.167969 Z M 47.476562 36.167969 " clip-rule="nonzero"/></clipPath><linearGradient x1="129.714718" gradientTransform="matrix(0.885859, 0, 0, 0.869913, 47.477157, 27.707562)" y1="28.97009" x2="123.17754" gradientUnits="userSpaceOnUse" y2="49.975245" id="733ae69457"><stop stop-opacity="1" stop-color="rgb(79.524231%, 32.226562%, 48.828125%)" offset="0"/><stop stop-opacity="1" stop-color="rgb(79.492188%, 32.144165%, 49.003601%)" offset="0.0078125"/><stop stop-opacity="1" stop-color="rgb(79.431152%, 31.97937%, 49.356079%)" offset="0.015625"/><stop stop-opacity="1" stop-color="rgb(79.370117%, 31.814575%, 49.707031%)" offset="0.0234375"/><stop stop-opacity="1" stop-color="rgb(79.309082%, 31.648254%, 50.059509%)" offset="0.03125"/><stop stop-opacity="1" stop-color="rgb(79.248047%, 31.483459%, 50.410461%)" offset="0.0390625"/><stop stop-opacity="1" stop-color="rgb(79.187012%, 31.318665%, 50.761414%)" offset="0.046875"/><stop stop-opacity="1" stop-color="rgb(79.124451%, 31.15387%, 51.113892%)" offset="0.0546875"/><stop stop-opacity="1" stop-color="rgb(79.063416%, 30.989075%, 51.464844%)" offset="0.0625"/><stop stop-opacity="1" stop-color="rgb(79.00238%, 30.822754%, 51.817322%)" offset="0.0703125"/><stop stop-opacity="1" stop-color="rgb(78.941345%, 30.657959%, 52.168274%)" offset="0.078125"/><stop stop-opacity="1" stop-color="rgb(78.88031%, 30.493164%, 52.519226%)" offset="0.0859375"/><stop stop-opacity="1" stop-color="rgb(78.817749%, 30.328369%, 52.871704%)" offset="0.09375"/><stop stop-opacity="1" stop-color="rgb(78.756714%, 30.163574%, 53.222656%)" offset="0.101563"/><stop stop-opacity="1" stop-color="rgb(78.695679%, 29.998779%, 53.575134%)" offset="0.109375"/><stop stop-opacity="1" stop-color="rgb(78.634644%, 29.832458%, 53.926086%)" offset="0.117187"/><stop stop-opacity="1" stop-color="rgb(78.573608%, 29.667664%, 54.277039%)" offset="0.125"/><stop stop-opacity="1" stop-color="rgb(78.512573%, 29.502869%, 54.629517%)" offset="0.132813"/><stop stop-opacity="1" stop-color="rgb(78.450012%, 29.338074%, 54.980469%)" offset="0.140625"/><stop stop-opacity="1" stop-color="rgb(78.388977%, 29.173279%, 55.332947%)" offset="0.148437"/><stop stop-opacity="1" stop-color="rgb(78.327942%, 29.006958%, 55.683899%)" offset="0.15625"/><stop stop-opacity="1" stop-color="rgb(78.266907%, 28.842163%, 56.034851%)" offset="0.164063"/><stop stop-opacity="1" stop-color="rgb(78.205872%, 28.677368%, 56.387329%)" offset="0.171875"/><stop stop-opacity="1" stop-color="rgb(78.143311%, 28.512573%, 56.738281%)" offset="0.179688"/><stop stop-opacity="1" stop-color="rgb(78.082275%, 28.347778%, 57.089233%)" offset="0.1875"/><stop stop-opacity="1" stop-color="rgb(78.02124%, 28.181458%, 57.441711%)" offset="0.195312"/><stop stop-opacity="1" stop-color="rgb(77.960205%, 28.016663%, 57.792664%)" offset="0.203125"/><stop stop-opacity="1" stop-color="rgb(77.89917%, 27.851868%, 58.145142%)" offset="0.210938"/><stop stop-opacity="1" stop-color="rgb(77.838135%, 27.687073%, 58.496094%)" offset="0.21875"/><stop stop-opacity="1" stop-color="rgb(77.775574%, 27.522278%, 58.847046%)" offset="0.226562"/><stop stop-opacity="1" stop-color="rgb(77.714539%, 27.357483%, 59.199524%)" offset="0.234375"/><stop stop-opacity="1" stop-color="rgb(77.653503%, 27.191162%, 59.550476%)" offset="0.242187"/><stop stop-opacity="1" stop-color="rgb(77.592468%, 27.026367%, 59.902954%)" offset="0.25"/><stop stop-opacity="1" stop-color="rgb(77.531433%, 26.861572%, 60.253906%)" offset="0.257812"/><stop stop-opacity="1" stop-color="rgb(77.468872%, 26.696777%, 60.604858%)" offset="0.265625"/><stop stop-opacity="1" stop-color="rgb(77.407837%, 26.531982%, 60.957336%)" offset="0.273437"/><stop stop-opacity="1" stop-color="rgb(77.346802%, 26.365662%, 61.308289%)" offset="0.28125"/><stop stop-opacity="1" stop-color="rgb(77.285767%, 26.200867%, 61.660767%)" offset="0.289062"/><stop stop-opacity="1" stop-color="rgb(77.224731%, 26.036072%, 62.011719%)" offset="0.296875"/><stop stop-opacity="1" stop-color="rgb(77.163696%, 25.871277%, 62.362671%)" offset="0.304687"/><stop stop-opacity="1" stop-color="rgb(77.101135%, 25.706482%, 62.715149%)" offset="0.3125"/><stop stop-opacity="1" stop-color="rgb(77.0401%, 25.541687%, 63.066101%)" offset="0.320312"/><stop stop-opacity="1" stop-color="rgb(76.979065%, 25.375366%, 63.418579%)" offset="0.328125"/><stop stop-opacity="1" stop-color="rgb(76.91803%, 25.210571%, 63.769531%)" offset="0.335937"/><stop stop-opacity="1" stop-color="rgb(76.856995%, 25.045776%, 64.120483%)" offset="0.34375"/><stop stop-opacity="1" stop-color="rgb(76.794434%, 24.880981%, 64.472961%)" offset="0.351562"/><stop stop-opacity="1" stop-color="rgb(76.733398%, 24.716187%, 64.823914%)" offset="0.359375"/><stop stop-opacity="1" stop-color="rgb(76.672363%, 24.549866%, 65.176392%)" offset="0.367187"/><stop stop-opacity="1" stop-color="rgb(76.611328%, 24.385071%, 65.527344%)" offset="0.375"/><stop stop-opacity="1" stop-color="rgb(76.550293%, 24.220276%, 65.878296%)" offset="0.382812"/><stop stop-opacity="1" stop-color="rgb(76.489258%, 24.055481%, 66.230774%)" offset="0.390625"/><stop stop-opacity="1" stop-color="rgb(76.426697%, 23.890686%, 66.581726%)" offset="0.398437"/><stop stop-opacity="1" stop-color="rgb(76.365662%, 23.725891%, 66.934204%)" offset="0.40625"/><stop stop-opacity="1" stop-color="rgb(76.304626%, 23.55957%, 67.285156%)" offset="0.414062"/><stop stop-opacity="1" stop-color="rgb(76.243591%, 23.394775%, 67.636108%)" offset="0.421875"/><stop stop-opacity="1" stop-color="rgb(76.182556%, 23.22998%, 67.988586%)" offset="0.429687"/><stop stop-opacity="1" stop-color="rgb(76.119995%, 23.065186%, 68.339539%)" offset="0.4375"/><stop stop-opacity="1" stop-color="rgb(76.05896%, 22.900391%, 68.692017%)" offset="0.445312"/><stop stop-opacity="1" stop-color="rgb(75.997925%, 22.73407%, 69.042969%)" offset="0.453125"/><stop stop-opacity="1" stop-color="rgb(75.93689%, 22.569275%, 69.393921%)" offset="0.460937"/><stop stop-opacity="1" stop-color="rgb(75.875854%, 22.40448%, 69.746399%)" offset="0.46875"/><stop stop-opacity="1" stop-color="rgb(75.814819%, 22.239685%, 70.097351%)" offset="0.476562"/><stop stop-opacity="1" stop-color="rgb(75.752258%, 22.07489%, 70.449829%)" offset="0.484375"/><stop stop-opacity="1" stop-color="rgb(75.691223%, 21.910095%, 70.800781%)" offset="0.492187"/><stop stop-opacity="1" stop-color="rgb(75.630188%, 21.743774%, 71.151733%)" offset="0.494775"/><stop stop-opacity="1" stop-color="rgb(75.59967%, 21.661377%, 71.328735%)" offset="0.5"/><stop stop-opacity="1" stop-color="rgb(75.569153%, 21.578979%, 71.504211%)" offset="0.505225"/><stop stop-opacity="1" stop-color="rgb(75.538635%, 21.496582%, 71.679688%)" offset="0.507812"/><stop stop-opacity="1" stop-color="rgb(75.508118%, 21.414185%, 71.855164%)" offset="0.515625"/><stop stop-opacity="1" stop-color="rgb(75.445557%, 21.24939%, 72.206116%)" offset="0.523437"/><stop stop-opacity="1" stop-color="rgb(75.384521%, 21.084595%, 72.558594%)" offset="0.53125"/><stop stop-opacity="1" stop-color="rgb(75.323486%, 20.918274%, 72.909546%)" offset="0.539062"/><stop stop-opacity="1" stop-color="rgb(75.262451%, 20.753479%, 73.262024%)" offset="0.546875"/><stop stop-opacity="1" stop-color="rgb(75.201416%, 20.588684%, 73.612976%)" offset="0.554687"/><stop stop-opacity="1" stop-color="rgb(75.140381%, 20.423889%, 73.963928%)" offset="0.5625"/><stop stop-opacity="1" stop-color="rgb(75.07782%, 20.259094%, 74.316406%)" offset="0.570313"/><stop stop-opacity="1" stop-color="rgb(75.016785%, 20.092773%, 74.667358%)" offset="0.578125"/><stop stop-opacity="1" stop-color="rgb(74.95575%, 19.927979%, 75.019836%)" offset="0.585938"/><stop stop-opacity="1" stop-color="rgb(74.894714%, 19.763184%, 75.370789%)" offset="0.59375"/><stop stop-opacity="1" stop-color="rgb(74.833679%, 19.598389%, 75.721741%)" offset="0.601563"/><stop stop-opacity="1" stop-color="rgb(74.771118%, 19.433594%, 76.074219%)" offset="0.609375"/><stop stop-opacity="1" stop-color="rgb(74.710083%, 19.268799%, 76.425171%)" offset="0.617188"/><stop stop-opacity="1" stop-color="rgb(74.649048%, 19.102478%, 76.777649%)" offset="0.625"/><stop stop-opacity="1" stop-color="rgb(74.588013%, 18.937683%, 77.128601%)" offset="0.632813"/><stop stop-opacity="1" stop-color="rgb(74.526978%, 18.772888%, 77.479553%)" offset="0.640625"/><stop stop-opacity="1" stop-color="rgb(74.465942%, 18.608093%, 77.832031%)" offset="0.648438"/><stop stop-opacity="1" stop-color="rgb(74.403381%, 18.443298%, 78.182983%)" offset="0.65625"/><stop stop-opacity="1" stop-color="rgb(74.342346%, 18.276978%, 78.535461%)" offset="0.664063"/><stop stop-opacity="1" stop-color="rgb(74.281311%, 18.112183%, 78.886414%)" offset="0.671875"/><stop stop-opacity="1" stop-color="rgb(74.220276%, 17.947388%, 79.237366%)" offset="0.679688"/><stop stop-opacity="1" stop-color="rgb(74.159241%, 17.782593%, 79.589844%)" offset="0.6875"/><stop stop-opacity="1" stop-color="rgb(74.09668%, 17.617798%, 79.940796%)" offset="0.695312"/><stop stop-opacity="1" stop-color="rgb(74.035645%, 17.453003%, 80.293274%)" offset="0.703125"/><stop stop-opacity="1" stop-color="rgb(73.974609%, 17.286682%, 80.644226%)" offset="0.710938"/><stop stop-opacity="1" stop-color="rgb(73.913574%, 17.121887%, 80.995178%)" offset="0.71875"/><stop stop-opacity="1" stop-color="rgb(73.852539%, 16.957092%, 81.347656%)" offset="0.726562"/><stop stop-opacity="1" stop-color="rgb(73.791504%, 16.792297%, 81.698608%)" offset="0.734375"/><stop stop-opacity="1" stop-color="rgb(73.728943%, 16.627502%, 82.051086%)" offset="0.742187"/><stop stop-opacity="1" stop-color="rgb(73.667908%, 16.461182%, 82.402039%)" offset="0.75"/><stop stop-opacity="1" stop-color="rgb(73.606873%, 16.296387%, 82.752991%)" offset="0.757812"/><stop stop-opacity="1" stop-color="rgb(73.545837%, 16.131592%, 83.105469%)" offset="0.765625"/><stop stop-opacity="1" stop-color="rgb(73.484802%, 15.966797%, 83.456421%)" offset="0.773437"/><stop stop-opacity="1" stop-color="rgb(73.422241%, 15.802002%, 83.808899%)" offset="0.78125"/><stop stop-opacity="1" stop-color="rgb(73.361206%, 15.637207%, 84.159851%)" offset="0.789062"/><stop stop-opacity="1" stop-color="rgb(73.300171%, 15.470886%, 84.510803%)" offset="0.796875"/><stop stop-opacity="1" stop-color="rgb(73.239136%, 15.306091%, 84.863281%)" offset="0.804688"/><stop stop-opacity="1" stop-color="rgb(73.178101%, 15.141296%, 85.214233%)" offset="0.8125"/><stop stop-opacity="1" stop-color="rgb(73.11554%, 14.976501%, 85.566711%)" offset="0.820312"/><stop stop-opacity="1" stop-color="rgb(73.054504%, 14.811707%, 85.917664%)" offset="0.828125"/><stop stop-opacity="1" stop-color="rgb(72.993469%, 14.645386%, 86.268616%)" offset="0.835937"/><stop stop-opacity="1" stop-color="rgb(72.932434%, 14.480591%, 86.621094%)" offset="0.84375"/><stop stop-opacity="1" stop-color="rgb(72.871399%, 14.315796%, 86.972046%)" offset="0.851562"/><stop stop-opacity="1" stop-color="rgb(72.810364%, 14.151001%, 87.322998%)" offset="0.859375"/><stop stop-opacity="1" stop-color="rgb(72.747803%, 13.986206%, 87.675476%)" offset="0.867187"/><stop stop-opacity="1" stop-color="rgb(72.686768%, 13.821411%, 88.026428%)" offset="0.875"/><stop stop-opacity="1" stop-color="rgb(72.625732%, 13.65509%, 88.378906%)" offset="0.882812"/><stop stop-opacity="1" stop-color="rgb(72.564697%, 13.490295%, 88.729858%)" offset="0.890625"/><stop stop-opacity="1" stop-color="rgb(72.503662%, 13.3255%, 89.080811%)" offset="0.898437"/><stop stop-opacity="1" stop-color="rgb(72.441101%, 13.160706%, 89.433289%)" offset="0.90625"/><stop stop-opacity="1" stop-color="rgb(72.380066%, 12.995911%, 89.784241%)" offset="0.914062"/><stop stop-opacity="1" stop-color="rgb(72.319031%, 12.82959%, 90.136719%)" offset="0.921875"/><stop stop-opacity="1" stop-color="rgb(72.257996%, 12.664795%, 90.487671%)" offset="0.929687"/><stop stop-opacity="1" stop-color="rgb(72.19696%, 12.5%, 90.838623%)" offset="0.9375"/><stop stop-opacity="1" stop-color="rgb(72.135925%, 12.335205%, 91.191101%)" offset="0.945312"/><stop stop-opacity="1" stop-color="rgb(72.073364%, 12.17041%, 91.542053%)" offset="0.953125"/><stop stop-opacity="1" stop-color="rgb(72.012329%, 12.004089%, 91.894531%)" offset="0.960937"/><stop stop-opacity="1" stop-color="rgb(71.951294%, 11.839294%, 92.245483%)" offset="0.96875"/><stop stop-opacity="1" stop-color="rgb(71.890259%, 11.6745%, 92.596436%)" offset="0.976562"/><stop stop-opacity="1" stop-color="rgb(71.829224%, 11.509705%, 92.948914%)" offset="0.984375"/><stop stop-opacity="1" stop-color="rgb(71.766663%, 11.34491%, 93.299866%)" offset="0.992187"/><stop stop-opacity="1" stop-color="rgb(71.705627%, 11.180115%, 93.652344%)" offset="1"/></linearGradient><clipPath id="5e613c65e0"><path d="M 64.609375 14.390625 L 78.777344 14.390625 L 78.777344 31.539062 L 64.609375 31.539062 Z M 64.609375 14.390625 " clip-rule="nonzero"/></clipPath></defs><g fill="#ffffff" fill-opacity="1"><g transform="translate(1.104532, 31.142847)"><g><path d="M 0.953125 -20.015625 L 6.328125 -20.015625 L 6.328125 -12.1875 L 8.609375 -12.1875 L 8.609375 -20.015625 L 13.984375 -20.015625 L 13.984375 0 L 8.609375 0 L 8.609375 -7.828125 L 6.328125 -7.828125 L 6.328125 0 L 0.953125 0 Z M 0.953125 -20.015625 "/></g></g></g><g fill="#ffffff" fill-opacity="1"><g transform="translate(16.052702, 31.142847)"><g><path d="M 4.078125 0.0625 C 3.222656 0.0625 2.609375 0.0078125 2.234375 -0.09375 C 1.867188 -0.207031 1.570312 -0.425781 1.34375 -0.75 C 1.164062 -1.03125 1.023438 -1.445312 0.921875 -2 C 0.828125 -2.5625 0.78125 -3.207031 0.78125 -3.9375 L 0.78125 -12.125 C 0.78125 -12.863281 0.820312 -13.421875 0.90625 -13.796875 C 1 -14.179688 1.164062 -14.492188 1.40625 -14.734375 C 1.882812 -15.210938 2.566406 -15.453125 3.453125 -15.453125 L 4.46875 -15.453125 C 4.851562 -15.453125 5.179688 -15.429688 5.453125 -15.390625 C 5.722656 -15.359375 5.960938 -15.296875 6.171875 -15.203125 C 6.378906 -15.109375 6.570312 -14.984375 6.75 -14.828125 C 6.9375 -14.671875 7.128906 -14.460938 7.328125 -14.203125 L 7.6875 -13.75 L 7.6875 -15.375 L 12.453125 -15.375 L 12.453125 0 L 7.6875 0 L 7.6875 -1.6875 C 7.488281 -1.300781 7.304688 -0.992188 7.140625 -0.765625 C 6.984375 -0.535156 6.804688 -0.359375 6.609375 -0.234375 C 6.421875 -0.117188 6.207031 -0.0390625 5.96875 0 C 5.726562 0.0390625 5.421875 0.0625 5.046875 0.0625 Z M 7.6875 -10.140625 C 7.6875 -11.304688 7.328125 -11.890625 6.609375 -11.890625 C 5.898438 -11.890625 5.546875 -11.304688 5.546875 -10.140625 L 5.546875 -5.40625 C 5.546875 -4.238281 5.910156 -3.65625 6.640625 -3.65625 C 7.335938 -3.65625 7.6875 -4.238281 7.6875 -5.40625 Z M 7.6875 -10.140625 "/></g></g></g><g fill="#ffffff" fill-opacity="1"><g transform="translate(29.379999, 31.142847)"><g><path d="M 0.875 -15.375 L 5.640625 -15.375 L 5.640625 -13.390625 C 6.097656 -14.148438 6.550781 -14.679688 7 -14.984375 C 7.457031 -15.296875 8.035156 -15.453125 8.734375 -15.453125 C 8.890625 -15.453125 9.023438 -15.441406 9.140625 -15.421875 C 9.253906 -15.398438 9.398438 -15.351562 9.578125 -15.28125 L 9.21875 -10.078125 C 8.851562 -10.265625 8.535156 -10.414062 8.265625 -10.53125 C 7.992188 -10.65625 7.726562 -10.765625 7.46875 -10.859375 C 7.207031 -10.960938 6.929688 -11.0625 6.640625 -11.15625 C 6.359375 -11.257812 6.023438 -11.375 5.640625 -11.5 L 5.640625 0 L 0.875 0 Z M 0.875 -15.375 "/></g></g></g><g fill="#ffffff" fill-opacity="1"><g transform="translate(39.255469, 31.142847)"><g><path d="M 0.875 -15.375 L 5.640625 -15.375 L 5.640625 0 L 0.875 0 Z M 0.875 -20.015625 L 5.640625 -20.015625 L 5.640625 -16.75 L 0.875 -16.75 Z M 0.875 -20.015625 "/></g></g></g><g clip-path="url(#12392a7856)"><path fill="#c037b6" d="M 63.515625 22.160156 C 63.355469 20.03125 62.28125 18.339844 60.835938 16.855469 C 59.59375 15.585938 58.328125 14.335938 57.035156 13.113281 C 56.40625 12.519531 55.863281 11.8125 55.058594 11.417969 C 55.027344 11.40625 55 11.394531 54.96875 11.382812 C 54.902344 11.355469 54.832031 11.328125 54.761719 11.300781 C 54.109375 11.074219 53.558594 11.222656 53.078125 11.757812 C 52.617188 12.265625 52.523438 12.867188 52.839844 13.5 C 53.222656 14.269531 53.871094 14.804688 54.496094 15.363281 C 55.867188 16.730469 57.265625 18.078125 58.605469 19.476562 C 60.121094 21.050781 60.503906 22.910156 59.753906 24.964844 C 59.09375 26.769531 57.769531 27.820312 55.898438 28.203125 C 55.867188 28.210938 55.839844 28.214844 55.808594 28.222656 C 55.703125 28.230469 55.597656 28.238281 55.492188 28.242188 C 55.320312 28.242188 55.144531 28.234375 54.96875 28.238281 C 53.457031 28.25 52.179688 27.730469 51.171875 26.582031 C 50.84375 26.210938 50.582031 25.796875 50.304688 25.394531 C 49.96875 24.90625 49.5625 24.5 48.925781 24.445312 C 47.617188 24.339844 46.714844 25.65625 47.328125 26.898438 C 48.351562 28.964844 49.933594 30.484375 52.140625 31.269531 C 53.222656 31.652344 54.339844 31.839844 55.488281 31.582031 C 55.882812 31.605469 56.265625 31.507812 56.648438 31.429688 C 56.6875 31.414062 56.722656 31.398438 56.761719 31.382812 C 56.902344 31.351562 57.046875 31.316406 57.1875 31.285156 L 57.226562 31.296875 C 57.226562 31.296875 57.257812 31.265625 57.257812 31.265625 C 57.453125 31.296875 57.558594 31.105469 57.722656 31.074219 C 59.277344 30.785156 60.441406 29.816406 61.4375 28.71875 C 63.101562 26.878906 63.699219 24.621094 63.515625 22.160156 Z M 54.765625 15.210938 C 54.792969 15.175781 54.8125 15.144531 54.828125 15.105469 C 54.8125 15.144531 54.792969 15.175781 54.765625 15.210938 Z M 54.765625 15.210938 " fill-opacity="1" fill-rule="nonzero"/></g><g clip-path="url(#b14d1aab90)"><path fill="#c037b6" d="M 49.550781 20.339844 C 50.722656 21.535156 51.875 22.757812 53.167969 23.828125 C 53.46875 24.117188 53.753906 24.429688 54.078125 24.691406 C 54.867188 25.328125 56.074219 25.34375 56.636719 24.746094 C 57.210938 24.128906 57.113281 23.070312 56.34375 22.289062 C 55.410156 21.34375 54.515625 20.359375 53.503906 19.492188 C 52.824219 18.652344 51.953125 18 51.222656 17.203125 C 50.796875 16.738281 50.316406 16.28125 50.066406 15.730469 C 49.160156 13.738281 49.382812 11.828125 50.738281 10.085938 C 50.953125 9.804688 51.160156 9.515625 51.46875 9.292969 C 52.300781 8.691406 53.234375 8.390625 54.230469 8.242188 C 55.722656 8.167969 57.066406 8.523438 58.1875 9.574219 C 58.765625 10.117188 59.132812 10.820312 59.648438 11.410156 C 60.136719 11.96875 60.761719 12.226562 61.402344 12.003906 C 62.121094 11.753906 62.554688 11.144531 62.535156 10.417969 C 62.523438 9.929688 62.355469 9.488281 62.109375 9.082031 C 61.621094 8.269531 61.019531 7.570312 60.300781 6.933594 C 58.96875 5.753906 57.445312 5.085938 55.695312 4.902344 C 55.621094 4.894531 55.550781 4.886719 55.480469 4.875 C 55.136719 4.761719 54.785156 4.816406 54.4375 4.828125 C 54.332031 4.820312 54.230469 4.808594 54.125 4.8125 C 50.582031 5 47.347656 7.640625 46.496094 11.078125 C 45.855469 13.644531 46.144531 16.0625 47.6875 18.28125 C 48.222656 19.050781 48.902344 19.679688 49.550781 20.339844 Z M 49.550781 20.339844 " fill-opacity="1" fill-rule="nonzero"/></g><g clip-path="url(#e425d06fec)"><g clip-path="url(#a270e69180)"><path fill="url(#733ae69457)" d="M 47.476562 27.707031 L 47.476562 37.832031 L 79.925781 37.832031 L 79.925781 27.707031 Z M 47.476562 27.707031 " fill-rule="nonzero"/></g></g><g clip-path="url(#5e613c65e0)"><path fill="#ffffff" d="M 74.347656 14.394531 L 74.347656 20.871094 L 70.136719 20.878906 L 73.0625 25.355469 L 74.347656 25.351562 L 74.347656 31.84375 L 78.824219 31.84375 L 78.824219 14.394531 Z M 64.609375 31.84375 L 69.085938 31.84375 L 69.085938 14.410156 L 64.609375 14.410156 Z M 64.609375 31.84375 " fill-opacity="1" fill-rule="nonzero"/></g></svg>